<svg width="1747" height="555" viewBox="0 0 1747 555" fill="none" xmlns="http://www.w3.org/2000/svg">
<g filter="url(#filter0_d_12_52)">
<path fill-rule="evenodd" clip-rule="evenodd" d="M268.67 24.038H357.059V410.128H268.67V384.185C257.644 395.572 244.035 404.506 228.84 410.331C213.645 416.156 197.25 418.724 180.857 417.848C161.984 417.999 143.302 414.303 126.108 407.017C108.915 399.732 93.6224 389.031 81.2927 375.657C54.6634 346.969 40 310.246 40 272.245C40 234.244 54.6634 197.521 81.2927 168.833C93.6224 155.459 108.915 144.758 126.108 137.473C143.302 130.187 161.984 126.491 180.857 126.642C197.245 125.768 213.636 128.334 228.829 134.15C244.022 139.967 257.634 148.887 268.67 160.26V24.038ZM147.86 321.304C161.77 333.034 179.83 339.526 198.554 339.526C217.277 339.526 235.337 333.034 249.246 321.304C261.779 307.641 268.67 290.23 268.67 272.223C268.67 254.216 261.779 236.805 249.246 223.143C235.323 211.439 217.269 204.965 198.554 204.965C179.838 204.965 161.784 211.439 147.86 223.143C135.327 236.805 128.437 254.216 128.437 272.223C128.437 290.23 135.327 307.641 147.86 321.304ZM621.075 134.362H709.464V410.127H621.075V384.184C610.049 395.572 596.44 404.505 581.245 410.33C566.05 416.155 549.655 418.723 533.261 417.847C514.388 417.998 495.707 414.302 478.513 407.017C461.32 399.731 446.028 389.03 433.698 375.657C407.069 346.969 392.405 310.246 392.405 272.244C392.405 234.243 407.069 197.52 433.698 168.832C446.028 155.459 461.32 144.758 478.513 137.472C495.707 130.186 514.388 126.491 533.261 126.642C549.65 125.768 566.04 128.333 581.234 134.149C596.427 139.966 610.039 148.887 621.075 160.26V134.362ZM500.266 321.303C514.175 333.033 532.235 339.525 550.958 339.525C569.682 339.525 587.742 333.033 601.652 321.303C614.185 307.64 621.075 290.229 621.075 272.222C621.075 254.215 614.185 236.804 601.652 223.142C587.728 211.438 569.673 204.964 550.958 204.964C532.243 204.964 514.189 211.438 500.266 223.142C487.733 236.804 480.842 254.215 480.842 272.222C480.842 290.229 487.733 307.64 500.266 321.303ZM1133.9 133.892C1119.86 128.516 1104.75 126.043 1089.59 126.642C1073.22 125.43 1056.78 128.136 1041.83 134.503C1026.88 140.871 1013.91 150.692 1004.13 163.043C995.79 151.179 984.27 141.572 970.719 135.184C957.168 128.796 942.062 125.85 926.913 126.642C911.832 125.388 896.659 127.77 882.84 133.561C869.021 139.352 857.017 148.358 847.972 159.721V134.362H759.583V410.128H847.972V254.606C847.119 240.986 851.396 227.518 860.058 216.544C864.169 211.94 869.369 208.294 875.245 205.895C881.122 203.495 887.514 202.408 893.917 202.72C899.818 202.376 905.725 203.293 911.192 205.4C916.659 207.507 921.543 210.75 925.474 214.883C933.203 224.342 937.064 236.074 936.361 247.963V410.128H1024.75V254.606C1023.9 240.986 1028.17 227.518 1036.84 216.544C1040.95 211.936 1046.16 208.287 1052.05 205.888C1057.93 203.488 1064.33 202.404 1070.74 202.72C1076.64 202.381 1082.54 203.3 1087.99 205.407C1093.45 207.514 1098.33 210.754 1102.25 214.883C1110 224.332 1113.87 236.071 1113.14 247.963V410.128H1201.58V240.781C1203.16 210.458 1192.18 180.732 1170.93 157.792C1160.57 147.421 1147.94 139.269 1133.9 133.892ZM1461.47 134.362H1549.86V410.128H1461.47V384.184C1450.44 395.565 1436.82 404.494 1421.63 410.318C1406.44 416.142 1390.05 418.715 1373.65 417.847C1354.77 417.999 1336.08 414.303 1318.88 407.018C1301.68 399.732 1286.38 389.031 1274.04 375.657C1247.44 346.956 1232.8 310.238 1232.8 272.244C1232.8 234.251 1247.44 197.533 1274.04 168.832C1286.38 155.458 1301.68 144.757 1318.88 137.471C1336.08 130.186 1354.77 126.49 1373.65 126.642C1390.04 125.777 1406.43 128.346 1421.62 134.162C1436.81 139.978 1450.43 148.894 1461.47 160.26V134.362ZM1340.66 321.303C1354.56 333.033 1372.61 339.526 1391.33 339.526C1410.04 339.526 1428.1 333.033 1442 321.303C1454.56 307.653 1461.47 290.237 1461.47 272.222C1461.47 254.208 1454.56 236.792 1442 223.142C1428.08 211.438 1410.03 204.964 1391.33 204.964C1372.62 204.964 1354.57 211.438 1340.66 223.142C1328.1 236.791 1321.19 254.208 1321.19 272.222C1321.19 290.237 1328.1 307.653 1340.66 321.303ZM1655.63 417.185C1668.4 416.071 1680.37 410.85 1689.5 402.409C1694.79 397.628 1698.99 391.885 1701.82 385.533C1704.66 379.181 1706.08 372.354 1706 365.47C1706 353.461 1701.57 341.821 1693.44 332.529C1685.31 323.238 1673.99 316.868 1661.41 314.504C1648.83 312.14 1635.76 313.927 1624.43 319.561C1613.1 325.195 1604.2 334.329 1599.25 345.409C1594.3 356.489 1593.61 368.831 1597.29 380.336C1600.96 391.842 1608.78 401.8 1619.42 408.518C1630.06 415.236 1642.85 418.298 1655.63 417.185Z" fill="white"/>
</g>
<g filter="url(#filter1_d_12_52)">
<path fill-rule="evenodd" clip-rule="evenodd" d="M1317.78 534.082L1312.75 534.226L1352.99 449.633L1358.02 449.465L1317.78 534.082ZM1087.32 524.811V518.878L1112.67 494.956C1118.5 490.623 1122.39 484.401 1123.55 477.519C1123.66 475.695 1123.34 473.872 1122.62 472.176C1121.9 470.48 1120.79 468.951 1119.37 467.695C1116.64 465.364 1113.06 464.101 1109.36 464.165C1106.03 464.037 1102.73 464.86 1099.91 466.524C1097.09 468.188 1094.87 470.615 1093.55 473.484L1087.62 470.193C1089.61 466.336 1092.76 463.106 1096.68 460.898C1100.53 458.797 1104.91 457.71 1109.36 457.752C1114.85 457.703 1120.15 459.609 1124.2 463.084C1126.33 464.9 1128.01 467.136 1129.12 469.632C1130.22 472.127 1130.72 474.821 1130.59 477.519C1130.57 481.428 1129.39 485.255 1127.17 488.567C1124.46 492.634 1121.23 496.376 1117.55 499.712L1097.45 518.398H1132.1V524.811H1087.32ZM660.316 518.59H628.107V458.881H621.075V524.81H660.316V518.59ZM689.303 525.94C696.309 525.94 703.041 523.391 708.076 518.831C712.994 514.141 715.75 507.832 715.75 501.261C715.75 494.69 712.994 488.382 708.076 483.692C703.041 479.132 696.309 476.582 689.303 476.582C682.296 476.582 675.564 479.132 670.529 483.692C665.596 488.374 662.831 494.686 662.831 501.261C662.831 507.837 665.596 514.149 670.529 518.831C675.564 523.391 682.296 525.94 689.303 525.94ZM689.29 519.911C684.017 519.911 678.957 517.97 675.201 514.507C671.53 510.958 669.478 506.212 669.478 501.273C669.478 496.334 671.53 491.588 675.201 488.039C678.949 484.562 684.012 482.611 689.29 482.611C694.567 482.611 699.632 484.562 703.38 488.039C707.065 491.581 709.128 496.329 709.128 501.273C709.128 506.217 707.065 510.965 703.38 514.507C699.624 517.97 694.563 519.911 689.29 519.911ZM768.05 518.831C763.016 523.391 756.284 525.94 749.277 525.94C742.271 525.94 735.539 523.391 730.504 518.831C725.571 514.148 722.805 507.837 722.805 501.261C722.805 494.685 725.571 488.374 730.504 483.692C735.539 479.132 742.271 476.582 749.277 476.582C756.284 476.582 763.016 479.132 768.05 483.692C772.969 488.381 775.724 494.69 775.724 501.261C775.724 507.832 772.969 514.141 768.05 518.831ZM735.175 514.507C738.931 517.97 743.992 519.911 749.264 519.911C754.537 519.911 759.598 517.97 763.354 514.507C767.039 510.965 769.102 506.217 769.102 501.273C769.102 496.329 767.039 491.581 763.354 488.039C759.605 484.562 754.542 482.611 749.264 482.611C743.987 482.611 738.923 484.562 735.175 488.039C731.504 491.588 729.452 496.334 729.452 501.273C729.452 506.212 731.504 510.958 735.175 514.507ZM817.609 524.81H826.464L799.491 500.313L825.463 477.711H816.403L792.433 498.559V458.881H785.786V524.81H792.433V502.089L817.609 524.81ZM861.474 476.581C864.897 476.533 868.294 477.144 871.455 478.375C874.616 479.606 877.473 481.432 879.849 483.739C884.721 488.432 887.446 494.717 887.446 501.26C887.446 507.803 884.721 514.089 879.849 518.782C877.477 521.093 874.62 522.922 871.459 524.153C868.297 525.385 864.898 525.993 861.474 525.939C857.403 526.091 853.364 525.208 849.786 523.386C846.208 521.563 843.223 518.869 841.148 515.588V524.812H834.501V458.881H841.148V486.957C843.217 483.67 846.2 480.969 849.779 479.142C853.358 477.315 857.4 476.43 861.474 476.581ZM846.896 514.507C850.652 517.97 855.714 519.911 860.986 519.911C866.259 519.911 871.32 517.97 875.076 514.507C878.746 510.958 880.798 506.212 880.798 501.273C880.798 496.334 878.746 491.588 875.076 488.039C871.328 484.562 866.264 482.611 860.986 482.611C855.709 482.611 850.645 484.562 846.896 488.039C843.211 491.581 841.148 496.329 841.148 501.273C841.148 506.217 843.211 510.965 846.896 514.507ZM920.974 525.94C927.981 525.94 934.713 523.391 939.748 518.831C944.666 514.141 947.421 507.832 947.421 501.261C947.421 494.69 944.666 488.381 939.748 483.692C934.713 479.132 927.981 476.582 920.974 476.582C913.968 476.582 907.236 479.132 902.201 483.692C897.268 488.374 894.502 494.685 894.502 501.261C894.502 507.837 897.268 514.148 902.201 518.831C907.236 523.391 913.968 525.94 920.974 525.94ZM920.962 519.911C915.689 519.911 910.628 517.97 906.872 514.507C903.201 510.958 901.149 506.212 901.149 501.273C901.149 496.334 903.201 491.588 906.872 488.039C910.62 484.562 915.684 482.611 920.962 482.611C926.239 482.611 931.303 484.562 935.051 488.039C938.737 491.581 940.799 496.329 940.799 501.273C940.799 506.217 938.737 510.965 935.051 514.507C931.295 517.97 926.234 519.911 920.962 519.911ZM999.722 518.831C994.687 523.391 987.955 525.94 980.948 525.94C973.942 525.94 967.21 523.391 962.175 518.831C957.242 514.149 954.476 507.837 954.476 501.261C954.476 494.685 957.242 488.374 962.175 483.692C967.21 479.132 973.942 476.582 980.948 476.582C987.955 476.582 994.687 479.132 999.722 483.692C1004.64 488.382 1007.4 494.69 1007.4 501.261C1007.4 507.832 1004.64 514.141 999.722 518.831ZM966.846 514.507C970.602 517.97 975.663 519.911 980.936 519.911C986.208 519.911 991.269 517.97 995.025 514.507C998.711 510.965 1000.77 506.217 1000.77 501.273C1000.77 496.329 998.711 491.581 995.025 488.039C991.277 484.562 986.213 482.611 980.936 482.611C975.658 482.611 970.594 484.562 966.846 488.039C963.176 491.588 961.123 496.334 961.123 501.273C961.123 506.212 963.176 510.958 966.846 514.507ZM1049.28 524.81H1058.14L1031.16 500.313L1057.13 477.711H1048.07L1024.1 498.559V458.881H1017.46V524.81H1024.1V502.089L1049.28 524.81ZM1176.82 523.492C1180.24 521.882 1183.21 519.545 1185.48 516.669C1190.06 509.097 1192.46 500.545 1192.46 491.846C1192.46 483.147 1190.06 474.595 1185.48 467.023C1183.21 464.147 1180.24 461.811 1176.82 460.201C1173.41 458.59 1169.64 457.752 1165.81 457.752C1161.99 457.752 1158.22 458.59 1154.8 460.201C1151.38 461.811 1148.42 464.147 1146.14 467.023C1141.55 474.59 1139.13 483.144 1139.13 491.846C1139.13 500.549 1141.55 509.102 1146.14 516.669C1148.42 519.545 1151.38 521.882 1154.8 523.492C1158.22 525.102 1161.99 525.94 1165.81 525.94C1169.64 525.94 1173.41 525.102 1176.82 523.492ZM1157.62 517.599C1155.1 516.334 1152.96 514.504 1151.38 512.274C1147.97 505.937 1146.19 498.941 1146.19 491.847C1146.19 484.752 1147.97 477.757 1151.38 471.42C1152.96 469.189 1155.1 467.36 1157.62 466.094C1160.14 464.828 1162.95 464.166 1165.81 464.166C1168.67 464.166 1171.49 464.828 1174.01 466.094C1176.52 467.36 1178.67 469.189 1180.25 471.42C1183.66 477.757 1185.43 484.752 1185.43 491.847C1185.43 498.941 1183.66 505.937 1180.25 512.274C1178.67 514.504 1176.52 516.334 1174.01 517.599C1171.49 518.865 1168.67 519.527 1165.81 519.527C1162.95 519.527 1160.14 518.865 1157.62 517.599ZM1199.52 524.811V518.878L1224.88 494.956C1230.71 490.623 1234.59 484.401 1235.76 477.519C1235.86 475.695 1235.54 473.872 1234.82 472.176C1234.1 470.48 1232.99 468.951 1231.57 467.695C1228.84 465.364 1225.26 464.101 1221.56 464.165C1218.23 464.037 1214.94 464.86 1212.11 466.524C1209.29 468.188 1207.07 470.615 1205.76 473.484L1199.83 470.193C1201.82 466.336 1204.97 463.106 1208.89 460.898C1212.73 458.797 1217.11 457.71 1221.56 457.752C1227.05 457.703 1232.36 459.609 1236.4 463.084C1238.53 464.9 1240.22 467.136 1241.32 469.632C1242.43 472.127 1242.93 474.821 1242.79 477.519C1242.78 481.428 1241.59 485.255 1239.38 488.567C1236.66 492.634 1233.43 496.376 1229.75 499.712L1209.66 518.398H1244.3V524.811H1199.52ZM1289.05 523.492C1292.46 521.882 1295.43 519.545 1297.71 516.669C1302.28 509.097 1304.69 500.545 1304.69 491.846C1304.69 483.147 1302.28 474.595 1297.71 467.023C1295.43 464.147 1292.46 461.811 1289.05 460.201C1285.63 458.59 1281.86 457.752 1278.04 457.752C1274.21 457.752 1270.44 458.59 1267.02 460.201C1263.61 461.811 1260.64 464.147 1258.36 467.023C1253.77 474.59 1251.36 483.144 1251.36 491.846C1251.36 500.549 1253.77 509.102 1258.36 516.669C1260.64 519.545 1263.61 521.882 1267.02 523.492C1270.44 525.102 1274.21 525.94 1278.04 525.94C1281.86 525.94 1285.63 525.102 1289.05 523.492ZM1269.84 517.599C1267.32 516.334 1265.18 514.504 1263.6 512.274C1260.19 505.937 1258.42 498.941 1258.42 491.847C1258.42 484.752 1260.19 477.757 1263.6 471.42C1265.18 469.189 1267.32 467.36 1269.84 466.094C1272.36 464.828 1275.18 464.166 1278.04 464.166C1280.89 464.166 1283.71 464.828 1286.23 466.094C1288.75 467.36 1290.89 469.189 1292.47 471.42C1295.88 477.757 1297.66 484.752 1297.66 491.847C1297.66 498.941 1295.88 505.937 1292.47 512.274C1290.89 514.504 1288.75 516.334 1286.23 517.599C1283.71 518.865 1280.89 519.527 1278.04 519.527C1275.18 519.527 1272.36 518.865 1269.84 517.599ZM1365.08 518.878V524.811H1409.86V518.398H1375.21L1395.31 499.712C1398.99 496.376 1402.22 492.634 1404.93 488.567C1407.15 485.255 1408.33 481.428 1408.35 477.519C1408.48 474.821 1407.98 472.127 1406.88 469.632C1405.77 467.136 1404.09 464.9 1401.96 463.084C1397.91 459.609 1392.61 457.703 1387.12 457.752C1382.67 457.71 1378.29 458.797 1374.44 460.898C1370.52 463.106 1367.37 466.336 1365.38 470.193L1371.31 473.484C1372.63 470.615 1374.85 468.188 1377.67 466.524C1380.49 464.86 1383.79 464.037 1387.12 464.165C1390.82 464.101 1394.4 465.364 1397.13 467.695C1398.55 468.951 1399.66 470.48 1400.38 472.176C1401.1 473.872 1401.42 475.695 1401.31 477.519C1400.15 484.401 1396.26 490.623 1390.43 494.956L1365.08 518.878ZM1463.24 516.669C1460.97 519.545 1458 521.882 1454.59 523.492C1451.17 525.102 1447.4 525.94 1443.57 525.94C1439.75 525.94 1435.98 525.102 1432.56 523.492C1429.14 521.882 1426.18 519.545 1423.9 516.669C1419.31 509.102 1416.9 500.549 1416.9 491.846C1416.9 483.144 1419.31 474.59 1423.9 467.023C1426.18 464.147 1429.14 461.811 1432.56 460.201C1435.98 458.59 1439.75 457.752 1443.57 457.752C1447.4 457.752 1451.17 458.59 1454.59 460.201C1458 461.811 1460.97 464.147 1463.24 467.023C1467.82 474.595 1470.23 483.147 1470.23 491.846C1470.23 500.545 1467.82 509.097 1463.24 516.669ZM1429.14 512.274C1430.72 514.504 1432.86 516.334 1435.38 517.599C1437.9 518.865 1440.71 519.527 1443.57 519.527C1446.43 519.527 1449.25 518.865 1451.77 517.599C1454.28 516.334 1456.43 514.504 1458.01 512.274C1461.42 505.937 1463.19 498.941 1463.19 491.847C1463.19 484.752 1461.42 477.756 1458.01 471.42C1456.43 469.189 1454.28 467.36 1451.77 466.094C1449.25 464.828 1446.43 464.166 1443.57 464.166C1440.71 464.166 1437.9 464.828 1435.38 466.094C1432.86 467.36 1430.72 469.189 1429.14 471.42C1425.73 477.757 1423.95 484.752 1423.95 491.847C1423.95 498.941 1425.73 505.937 1429.14 512.274ZM1477.28 518.878V524.811H1522.06V518.398H1487.42L1507.51 499.712C1511.19 496.376 1514.42 492.634 1517.14 488.567C1519.35 485.255 1520.54 481.428 1520.55 477.519C1520.69 474.821 1520.19 472.127 1519.08 469.632C1517.98 467.136 1516.3 464.9 1514.16 463.084C1510.12 459.609 1504.81 457.703 1499.32 457.752C1494.87 457.71 1490.49 458.797 1486.65 460.898C1482.73 463.106 1479.58 466.336 1477.59 470.193L1483.52 473.484C1484.83 470.615 1487.05 468.188 1489.87 466.524C1492.7 464.86 1495.99 464.037 1499.32 464.165C1503.02 464.101 1506.6 465.364 1509.33 467.695C1510.75 468.951 1511.86 470.48 1512.58 472.176C1513.3 473.872 1513.62 475.695 1513.52 477.519C1512.35 484.401 1508.47 490.623 1502.64 494.956L1477.28 518.878ZM1545.21 458.881H1551.27V524.811H1544.21V466.134L1528.41 470.553L1526.61 464.909L1545.21 458.881ZM1569.88 525.748C1571.35 525.748 1572.76 525.204 1573.8 524.235C1574.84 523.263 1575.42 521.945 1575.42 520.572C1575.42 519.199 1574.84 517.882 1573.8 516.909C1572.76 515.94 1571.35 515.396 1569.88 515.396C1568.4 515.396 1566.99 515.94 1565.95 516.909C1564.91 517.882 1564.33 519.199 1564.33 520.572C1564.33 521.945 1564.91 523.263 1565.95 524.235C1566.99 525.204 1568.4 525.748 1569.88 525.748Z" fill="white"/>
</g>
<defs>
<filter id="filter0_d_12_52" x="0" y="0.0380249" width="1746" height="473.977" filterUnits="userSpaceOnUse" color-interpolation-filters="sRGB">
<feFlood flood-opacity="0" result="BackgroundImageFix"/>
<feColorMatrix in="SourceAlpha" type="matrix" values="0 0 0 0 0 0 0 0 0 0 0 0 0 0 0 0 0 0 127 0" result="hardAlpha"/>
<feOffset dy="16"/>
<feGaussianBlur stdDeviation="20"/>
<feComposite in2="hardAlpha" operator="out"/>
<feColorMatrix type="matrix" values="0 0 0 0 0 0 0 0 0 0 0 0 0 0 0 0 0 0 0.16 0"/>
<feBlend mode="normal" in2="BackgroundImageFix" result="effect1_dropShadow_12_52"/>
<feBlend mode="normal" in="SourceGraphic" in2="effect1_dropShadow_12_52" result="shape"/>
</filter>
<filter id="filter1_d_12_52" x="605.075" y="437.465" width="986.344" height="116.761" filterUnits="userSpaceOnUse" color-interpolation-filters="sRGB">
<feFlood flood-opacity="0" result="BackgroundImageFix"/>
<feColorMatrix in="SourceAlpha" type="matrix" values="0 0 0 0 0 0 0 0 0 0 0 0 0 0 0 0 0 0 127 0" result="hardAlpha"/>
<feOffset dy="4"/>
<feGaussianBlur stdDeviation="8"/>
<feComposite in2="hardAlpha" operator="out"/>
<feColorMatrix type="matrix" values="0 0 0 0 0 0 0 0 0 0 0 0 0 0 0 0 0 0 0.16 0"/>
<feBlend mode="normal" in2="BackgroundImageFix" result="effect1_dropShadow_12_52"/>
<feBlend mode="normal" in="SourceGraphic" in2="effect1_dropShadow_12_52" result="shape"/>
</filter>
</defs>
</svg>
